<svg width="224" height="82" viewBox="0 0 224 82" fill="none" xmlns="http://www.w3.org/2000/svg">
<g clip-path="url(#clip0_518_10)">
<path opacity="0.2" d="M37.4162 0H37.4161C16.7518 0 0 16.7518 0 37.4161V37.4162C0 58.0805 16.7518 74.8323 37.4161 74.8323H37.4162C58.0805 74.8323 74.8323 58.0805 74.8323 37.4162V37.4161C74.8323 16.7518 58.0805 0 37.4162 0Z" fill="white"/>
<path d="M82.6265 56.1238C82.6265 42.3475 71.4586 31.1797 57.6824 31.1797C43.9061 31.1797 32.7383 42.3475 32.7383 56.1238C32.7383 69.9 43.9061 81.0679 57.6824 81.0679C71.4586 81.0679 82.6265 69.9 82.6265 56.1238Z" fill="white"/>
<path d="M113.344 32.9858C113.238 32.0445 112.8 31.3153 112.031 30.7983C111.262 30.2746 110.295 30.0128 109.128 30.0128C108.293 30.0128 107.57 30.1454 106.96 30.4105C106.35 30.669 105.876 31.027 105.538 31.4844C105.207 31.9351 105.041 32.4489 105.041 33.0256C105.041 33.5095 105.154 33.9271 105.379 34.2784C105.611 34.6297 105.913 34.9247 106.284 35.1634C106.662 35.3954 107.066 35.5909 107.497 35.75C107.928 35.9025 108.342 36.0284 108.74 36.1278L110.729 36.6449C111.378 36.804 112.045 37.0194 112.727 37.2912C113.41 37.563 114.043 37.9209 114.626 38.3651C115.21 38.8092 115.68 39.3594 116.038 40.0156C116.403 40.6719 116.585 41.4574 116.585 42.3722C116.585 43.5256 116.287 44.5497 115.69 45.4446C115.1 46.3395 114.242 47.0455 113.115 47.5625C111.995 48.0795 110.639 48.3381 109.048 48.3381C107.524 48.3381 106.205 48.0961 105.091 47.6122C103.977 47.1283 103.106 46.4422 102.476 45.554C101.846 44.6591 101.498 43.5985 101.432 42.3722H104.514C104.574 43.108 104.813 43.7211 105.23 44.2116C105.654 44.6955 106.195 45.0568 106.851 45.2955C107.514 45.5275 108.24 45.6435 109.028 45.6435C109.897 45.6435 110.669 45.5076 111.345 45.2358C112.028 44.9574 112.565 44.5729 112.956 44.0824C113.347 43.5852 113.543 43.0052 113.543 42.3423C113.543 41.7391 113.37 41.2453 113.026 40.8608C112.688 40.4763 112.227 40.1581 111.643 39.9062C111.067 39.6544 110.414 39.4323 109.685 39.2401L107.278 38.5838C105.648 38.1397 104.355 37.4867 103.401 36.625C102.453 35.7633 101.979 34.6231 101.979 33.2045C101.979 32.0312 102.297 31.0071 102.933 30.1321C103.57 29.2571 104.431 28.5777 105.518 28.0938C106.606 27.6032 107.832 27.358 109.197 27.358C110.576 27.358 111.793 27.5999 112.847 28.0838C113.907 28.5677 114.742 29.2339 115.352 30.0824C115.962 30.9242 116.28 31.892 116.307 32.9858H113.344ZM127.147 32.7273V35.1136H118.805V32.7273H127.147ZM121.042 29.0682H124.015V43.5156C124.015 44.0923 124.101 44.5265 124.274 44.8182C124.446 45.1032 124.668 45.2988 124.94 45.4048C125.218 45.5043 125.52 45.554 125.845 45.554C126.083 45.554 126.292 45.5374 126.471 45.5043C126.65 45.4711 126.789 45.4446 126.889 45.4247L127.426 47.8807C127.253 47.947 127.008 48.0133 126.69 48.0795C126.372 48.1525 125.974 48.1922 125.497 48.1989C124.715 48.2121 123.985 48.0729 123.309 47.7812C122.633 47.4896 122.086 47.0388 121.669 46.429C121.251 45.8191 121.042 45.0535 121.042 44.1321V29.0682ZM136.705 48.3082C135.273 48.3082 134.024 47.9801 132.957 47.3239C131.889 46.6676 131.061 45.7495 130.471 44.5696C129.881 43.3897 129.586 42.0109 129.586 40.4332C129.586 38.849 129.881 37.4635 130.471 36.277C131.061 35.0904 131.889 34.169 132.957 33.5128C134.024 32.8565 135.273 32.5284 136.705 32.5284C138.137 32.5284 139.387 32.8565 140.454 33.5128C141.521 34.169 142.35 35.0904 142.94 36.277C143.53 37.4635 143.825 38.849 143.825 40.4332C143.825 42.0109 143.53 43.3897 142.94 44.5696C142.35 45.7495 141.521 46.6676 140.454 47.3239C139.387 47.9801 138.137 48.3082 136.705 48.3082ZM136.715 45.8125C137.643 45.8125 138.412 45.5672 139.022 45.0767C139.632 44.5862 140.083 43.9332 140.374 43.1179C140.673 42.3026 140.822 41.4044 140.822 40.4233C140.822 39.4489 140.673 38.554 140.374 37.7386C140.083 36.9167 139.632 36.2571 139.022 35.7599C138.412 35.2628 137.643 35.0142 136.715 35.0142C135.781 35.0142 135.005 35.2628 134.388 35.7599C133.779 36.2571 133.325 36.9167 133.026 37.7386C132.735 38.554 132.589 39.4489 132.589 40.4233C132.589 41.4044 132.735 42.3026 133.026 43.1179C133.325 43.9332 133.779 44.5862 134.388 45.0767C135.005 45.5672 135.781 45.8125 136.715 45.8125ZM147.143 48V32.7273H150.017V35.1534H150.176C150.454 34.3314 150.945 33.6851 151.647 33.2145C152.357 32.7372 153.159 32.4986 154.054 32.4986C154.239 32.4986 154.458 32.5052 154.71 32.5185C154.968 32.5317 155.171 32.5483 155.316 32.5682V35.4119C155.197 35.3788 154.985 35.3423 154.68 35.3026C154.375 35.2562 154.07 35.233 153.765 35.233C153.063 35.233 152.436 35.3821 151.886 35.6804C151.342 35.9721 150.912 36.3797 150.593 36.9034C150.275 37.4205 150.116 38.0104 150.116 38.6733V48H147.143ZM163.925 48.3082C162.42 48.3082 161.124 47.9867 160.037 47.3438C158.956 46.6941 158.121 45.7827 157.531 44.6094C156.948 43.4295 156.656 42.0473 156.656 40.4631C156.656 38.8987 156.948 37.5199 157.531 36.3267C158.121 35.1335 158.943 34.2022 159.997 33.5327C161.058 32.8632 162.297 32.5284 163.716 32.5284C164.578 32.5284 165.413 32.6709 166.222 32.956C167.03 33.241 167.756 33.6884 168.399 34.2983C169.042 34.9081 169.549 35.7003 169.92 36.6747C170.292 37.6425 170.477 38.8191 170.477 40.2045V41.2585H158.337V39.0312H167.564C167.564 38.2491 167.405 37.5563 167.087 36.9531C166.768 36.3433 166.321 35.8627 165.744 35.5114C165.174 35.16 164.505 34.9844 163.736 34.9844C162.901 34.9844 162.171 35.1899 161.548 35.6009C160.932 36.0052 160.455 36.5355 160.116 37.1918C159.785 37.8414 159.619 38.5473 159.619 39.3097V41.0497C159.619 42.0705 159.798 42.9389 160.156 43.6548C160.521 44.3707 161.028 44.9176 161.678 45.2955C162.327 45.6667 163.086 45.8523 163.955 45.8523C164.518 45.8523 165.032 45.7727 165.496 45.6136C165.96 45.4479 166.361 45.2027 166.699 44.8778C167.037 44.553 167.295 44.152 167.474 43.6747L170.288 44.1818C170.063 45.0104 169.659 45.7363 169.075 46.3594C168.499 46.9759 167.773 47.4564 166.898 47.8011C166.029 48.1392 165.038 48.3082 163.925 48.3082ZM180.599 34V32.0909C180.599 31.5275 180.705 30.9342 180.918 30.3111C181.13 29.688 181.425 29.0914 181.803 28.5213C182.18 27.9512 182.625 27.464 183.135 27.0597L184.607 28.1136C184.202 28.7036 183.857 29.3201 183.572 29.9631C183.287 30.6061 183.145 31.3054 183.145 32.0611V34H180.599ZM193.757 48.3082C192.252 48.3082 190.956 47.9867 189.869 47.3438C188.788 46.6941 187.953 45.7827 187.363 44.6094C186.78 43.4295 186.488 42.0473 186.488 40.4631C186.488 38.8987 186.78 37.5199 187.363 36.3267C187.953 35.1335 188.775 34.2022 189.829 33.5327C190.89 32.8632 192.129 32.5284 193.548 32.5284C194.41 32.5284 195.245 32.6709 196.054 32.956C196.862 33.241 197.588 33.6884 198.231 34.2983C198.874 34.9081 199.381 35.7003 199.752 36.6747C200.124 37.6425 200.309 38.8191 200.309 40.2045V41.2585H188.169V39.0312H197.396C197.396 38.2491 197.237 37.5563 196.919 36.9531C196.6 36.3433 196.153 35.8627 195.576 35.5114C195.006 35.16 194.337 34.9844 193.568 34.9844C192.733 34.9844 192.003 35.1899 191.38 35.6009C190.764 36.0052 190.287 36.5355 189.949 37.1918C189.617 37.8414 189.451 38.5473 189.451 39.3097V41.0497C189.451 42.0705 189.63 42.9389 189.988 43.6548C190.353 44.3707 190.86 44.9176 191.51 45.2955C192.159 45.6667 192.918 45.8523 193.787 45.8523C194.35 45.8523 194.864 45.7727 195.328 45.6136C195.792 45.4479 196.193 45.2027 196.531 44.8778C196.869 44.553 197.127 44.152 197.306 43.6747L200.12 44.1818C199.895 45.0104 199.491 45.7363 198.907 46.3594C198.331 46.9759 197.605 47.4564 196.73 47.8011C195.861 48.1392 194.87 48.3082 193.757 48.3082ZM203.608 48V32.7273H206.462V35.2131H206.651C206.969 34.3712 207.489 33.715 208.212 33.2443C208.934 32.767 209.799 32.5284 210.807 32.5284C211.828 32.5284 212.683 32.767 213.372 33.2443C214.068 33.7216 214.582 34.3778 214.913 35.2131H215.072C215.437 34.3977 216.017 33.7481 216.812 33.2642C217.608 32.7737 218.556 32.5284 219.656 32.5284C221.042 32.5284 222.172 32.9626 223.047 33.831C223.929 34.6993 224.369 36.0085 224.369 37.7585V48H221.396V38.0369C221.396 37.0028 221.115 36.2538 220.551 35.7898C219.988 35.3258 219.315 35.0938 218.533 35.0938C217.565 35.0938 216.812 35.392 216.276 35.9886C215.739 36.5786 215.47 37.3376 215.47 38.2656V48H212.507V37.848C212.507 37.0194 212.249 36.3532 211.732 35.8494C211.214 35.3456 210.542 35.0938 209.713 35.0938C209.15 35.0938 208.629 35.2429 208.152 35.5412C207.681 35.8329 207.3 36.2405 207.009 36.7642C206.723 37.2879 206.581 37.8944 206.581 38.5838V48H203.608Z" fill="white"/>
</g>
<defs>
<clipPath id="clip0_518_10">
<rect width="224" height="82" fill="white"/>
</clipPath>
</defs>
</svg>
