<svg width="224" height="82" viewBox="0 0 224 82" fill="none" xmlns="http://www.w3.org/2000/svg">
<g clip-path="url(#clip0_518_14)">
<path opacity="0.2" d="M37.4162 0H37.4161C16.7518 0 0 16.7518 0 37.4161V37.4162C0 58.0805 16.7518 74.8323 37.4161 74.8323H37.4162C58.0805 74.8323 74.8323 58.0805 74.8323 37.4162V37.4161C74.8323 16.7518 58.0805 0 37.4162 0Z" fill="#FA7275"/>
<path d="M82.6265 56.1238C82.6265 42.3475 71.4586 31.1797 57.6824 31.1797C43.9061 31.1797 32.7383 42.3475 32.7383 56.1238C32.7383 69.9 43.9061 81.0679 57.6824 81.0679C71.4586 81.0679 82.6265 69.9 82.6265 56.1238Z" fill="#FA7275"/>
<path d="M110.344 32.9858C110.238 32.0445 109.8 31.3153 109.031 30.7983C108.262 30.2746 107.295 30.0128 106.128 30.0128C105.293 30.0128 104.57 30.1454 103.96 30.4105C103.35 30.669 102.876 31.027 102.538 31.4844C102.207 31.9351 102.041 32.4489 102.041 33.0256C102.041 33.5095 102.154 33.9271 102.379 34.2784C102.611 34.6297 102.913 34.9247 103.284 35.1634C103.662 35.3954 104.066 35.5909 104.497 35.75C104.928 35.9025 105.342 36.0284 105.74 36.1278L107.729 36.6449C108.378 36.804 109.045 37.0194 109.727 37.2912C110.41 37.563 111.043 37.9209 111.626 38.3651C112.21 38.8092 112.68 39.3594 113.038 40.0156C113.403 40.6719 113.585 41.4574 113.585 42.3722C113.585 43.5256 113.287 44.5497 112.69 45.4446C112.1 46.3395 111.242 47.0455 110.115 47.5625C108.995 48.0795 107.639 48.3381 106.048 48.3381C104.524 48.3381 103.205 48.0961 102.091 47.6122C100.977 47.1283 100.106 46.4422 99.4759 45.554C98.8461 44.6591 98.4981 43.5985 98.4318 42.3722H101.514C101.574 43.108 101.813 43.7211 102.23 44.2116C102.654 44.6955 103.195 45.0568 103.851 45.2955C104.514 45.5275 105.24 45.6435 106.028 45.6435C106.897 45.6435 107.669 45.5076 108.345 45.2358C109.028 44.9574 109.565 44.5729 109.956 44.0824C110.347 43.5852 110.543 43.0052 110.543 42.3423C110.543 41.7391 110.37 41.2453 110.026 40.8608C109.688 40.4763 109.227 40.1581 108.643 39.9062C108.067 39.6544 107.414 39.4323 106.685 39.2401L104.278 38.5838C102.648 38.1397 101.355 37.4867 100.401 36.625C99.4527 35.7633 98.9787 34.6231 98.9787 33.2045C98.9787 32.0312 99.2969 31.0071 99.9332 30.1321C100.57 29.2571 101.431 28.5777 102.518 28.0938C103.606 27.6032 104.832 27.358 106.197 27.358C107.576 27.358 108.793 27.5999 109.847 28.0838C110.907 28.5677 111.742 29.2339 112.352 30.0824C112.962 30.9242 113.28 31.892 113.307 32.9858H110.344ZM124.147 32.7273V35.1136H115.805V32.7273H124.147ZM118.042 29.0682H121.015V43.5156C121.015 44.0923 121.101 44.5265 121.274 44.8182C121.446 45.1032 121.668 45.2988 121.94 45.4048C122.218 45.5043 122.52 45.554 122.845 45.554C123.083 45.554 123.292 45.5374 123.471 45.5043C123.65 45.4711 123.789 45.4446 123.889 45.4247L124.426 47.8807C124.253 47.947 124.008 48.0133 123.69 48.0795C123.372 48.1525 122.974 48.1922 122.497 48.1989C121.715 48.2121 120.985 48.0729 120.309 47.7812C119.633 47.4896 119.086 47.0388 118.669 46.429C118.251 45.8191 118.042 45.0535 118.042 44.1321V29.0682ZM133.705 48.3082C132.273 48.3082 131.024 47.9801 129.957 47.3239C128.889 46.6676 128.061 45.7495 127.471 44.5696C126.881 43.3897 126.586 42.0109 126.586 40.4332C126.586 38.849 126.881 37.4635 127.471 36.277C128.061 35.0904 128.889 34.169 129.957 33.5128C131.024 32.8565 132.273 32.5284 133.705 32.5284C135.137 32.5284 136.387 32.8565 137.454 33.5128C138.521 34.169 139.35 35.0904 139.94 36.277C140.53 37.4635 140.825 38.849 140.825 40.4332C140.825 42.0109 140.53 43.3897 139.94 44.5696C139.35 45.7495 138.521 46.6676 137.454 47.3239C136.387 47.9801 135.137 48.3082 133.705 48.3082ZM133.715 45.8125C134.643 45.8125 135.412 45.5672 136.022 45.0767C136.632 44.5862 137.083 43.9332 137.374 43.1179C137.673 42.3026 137.822 41.4044 137.822 40.4233C137.822 39.4489 137.673 38.554 137.374 37.7386C137.083 36.9167 136.632 36.2571 136.022 35.7599C135.412 35.2628 134.643 35.0142 133.715 35.0142C132.781 35.0142 132.005 35.2628 131.388 35.7599C130.779 36.2571 130.325 36.9167 130.026 37.7386C129.735 38.554 129.589 39.4489 129.589 40.4233C129.589 41.4044 129.735 42.3026 130.026 43.1179C130.325 43.9332 130.779 44.5862 131.388 45.0767C132.005 45.5672 132.781 45.8125 133.715 45.8125ZM144.143 48V32.7273H147.017V35.1534H147.176C147.454 34.3314 147.945 33.6851 148.647 33.2145C149.357 32.7372 150.159 32.4986 151.054 32.4986C151.239 32.4986 151.458 32.5052 151.71 32.5185C151.968 32.5317 152.171 32.5483 152.316 32.5682V35.4119C152.197 35.3788 151.985 35.3423 151.68 35.3026C151.375 35.2562 151.07 35.233 150.765 35.233C150.063 35.233 149.436 35.3821 148.886 35.6804C148.342 35.9721 147.912 36.3797 147.593 36.9034C147.275 37.4205 147.116 38.0104 147.116 38.6733V48H144.143ZM160.925 48.3082C159.42 48.3082 158.124 47.9867 157.037 47.3438C155.956 46.6941 155.121 45.7827 154.531 44.6094C153.948 43.4295 153.656 42.0473 153.656 40.4631C153.656 38.8987 153.948 37.5199 154.531 36.3267C155.121 35.1335 155.943 34.2022 156.997 33.5327C158.058 32.8632 159.297 32.5284 160.716 32.5284C161.578 32.5284 162.413 32.6709 163.222 32.956C164.03 33.241 164.756 33.6884 165.399 34.2983C166.042 34.9081 166.549 35.7003 166.92 36.6747C167.292 37.6425 167.477 38.8191 167.477 40.2045V41.2585H155.337V39.0312H164.564C164.564 38.2491 164.405 37.5563 164.087 36.9531C163.768 36.3433 163.321 35.8627 162.744 35.5114C162.174 35.16 161.505 34.9844 160.736 34.9844C159.901 34.9844 159.171 35.1899 158.548 35.6009C157.932 36.0052 157.455 36.5355 157.116 37.1918C156.785 37.8414 156.619 38.5473 156.619 39.3097V41.0497C156.619 42.0705 156.798 42.9389 157.156 43.6548C157.521 44.3707 158.028 44.9176 158.678 45.2955C159.327 45.6667 160.086 45.8523 160.955 45.8523C161.518 45.8523 162.032 45.7727 162.496 45.6136C162.96 45.4479 163.361 45.2027 163.699 44.8778C164.037 44.553 164.295 44.152 164.474 43.6747L167.288 44.1818C167.063 45.0104 166.659 45.7363 166.075 46.3594C165.499 46.9759 164.773 47.4564 163.898 47.8011C163.029 48.1392 162.038 48.3082 160.925 48.3082ZM177.599 34V32.0909C177.599 31.5275 177.705 30.9342 177.918 30.3111C178.13 29.688 178.425 29.0914 178.803 28.5213C179.18 27.9512 179.625 27.464 180.135 27.0597L181.607 28.1136C181.202 28.7036 180.857 29.3201 180.572 29.9631C180.287 30.6061 180.145 31.3054 180.145 32.0611V34H177.599ZM190.757 48.3082C189.252 48.3082 187.956 47.9867 186.869 47.3438C185.788 46.6941 184.953 45.7827 184.363 44.6094C183.78 43.4295 183.488 42.0473 183.488 40.4631C183.488 38.8987 183.78 37.5199 184.363 36.3267C184.953 35.1335 185.775 34.2022 186.829 33.5327C187.89 32.8632 189.129 32.5284 190.548 32.5284C191.41 32.5284 192.245 32.6709 193.054 32.956C193.862 33.241 194.588 33.6884 195.231 34.2983C195.874 34.9081 196.381 35.7003 196.752 36.6747C197.124 37.6425 197.309 38.8191 197.309 40.2045V41.2585H185.169V39.0312H194.396C194.396 38.2491 194.237 37.5563 193.919 36.9531C193.6 36.3433 193.153 35.8627 192.576 35.5114C192.006 35.16 191.337 34.9844 190.568 34.9844C189.733 34.9844 189.003 35.1899 188.38 35.6009C187.764 36.0052 187.287 36.5355 186.949 37.1918C186.617 37.8414 186.451 38.5473 186.451 39.3097V41.0497C186.451 42.0705 186.63 42.9389 186.988 43.6548C187.353 44.3707 187.86 44.9176 188.51 45.2955C189.159 45.6667 189.918 45.8523 190.787 45.8523C191.35 45.8523 191.864 45.7727 192.328 45.6136C192.792 45.4479 193.193 45.2027 193.531 44.8778C193.869 44.553 194.127 44.152 194.306 43.6747L197.12 44.1818C196.895 45.0104 196.491 45.7363 195.907 46.3594C195.331 46.9759 194.605 47.4564 193.73 47.8011C192.861 48.1392 191.87 48.3082 190.757 48.3082ZM200.608 48V32.7273H203.462V35.2131H203.651C203.969 34.3712 204.489 33.715 205.212 33.2443C205.934 32.767 206.799 32.5284 207.807 32.5284C208.828 32.5284 209.683 32.767 210.372 33.2443C211.068 33.7216 211.582 34.3778 211.913 35.2131H212.072C212.437 34.3977 213.017 33.7481 213.812 33.2642C214.608 32.7737 215.556 32.5284 216.656 32.5284C218.042 32.5284 219.172 32.9626 220.047 33.831C220.929 34.6993 221.369 36.0085 221.369 37.7585V48H218.396V38.0369C218.396 37.0028 218.115 36.2538 217.551 35.7898C216.988 35.3258 216.315 35.0938 215.533 35.0938C214.565 35.0938 213.812 35.392 213.276 35.9886C212.739 36.5786 212.47 37.3376 212.47 38.2656V48H209.507V37.848C209.507 37.0194 209.249 36.3532 208.732 35.8494C208.214 35.3456 207.542 35.0938 206.713 35.0938C206.15 35.0938 205.629 35.2429 205.152 35.5412C204.681 35.8329 204.3 36.2405 204.009 36.7642C203.723 37.2879 203.581 37.8944 203.581 38.5838V48H200.608Z" fill="#FA7275"/>
</g>
<defs>
<clipPath id="clip0_518_14">
<rect width="224" height="82" fill="white"/>
</clipPath>
</defs>
</svg>
